<?xml version="1.0" standalone="no"?>
<!DOCTYPE svg PUBLIC "-//W3C//DTD SVG 20010904//EN"
 "http://www.w3.org/TR/2001/REC-SVG-20010904/DTD/svg10.dtd">
<svg version="1.0" xmlns="http://www.w3.org/2000/svg"
 width="160.000000pt" height="160.000000pt" viewBox="0 0 160.000000 160.000000"
 preserveAspectRatio="xMidYMid meet">
<metadata>
Created by potrace 1.11, written by Peter Selinger 2001-2013
</metadata>
<g transform="translate(0.000000,160.000000) scale(0.100000,-0.100000)"
fill="#000000" stroke="none">
<path d="M0 800 l0 -800 800 0 800 0 0 800 0 800 -250 0 c-160 0 -250 -4 -250
-10 0 -5 5 -10 12 -10 6 0 9 -2 6 -5 -8 -9 -38 6 -32 16 3 5 -222 9 -540 9
l-546 0 0 -800z m1261 718 c14 -25 6 -22 -30 9 -17 15 -31 36 -31 47 0 16 4
15 26 -10 14 -16 30 -37 35 -46z m-186 18 c14 6 17 4 12 -8 -6 -18 18 -32 36
-21 6 4 8 0 4 -10 -3 -9 1 -18 10 -21 9 -4 13 -9 10 -13 -4 -3 -13 0 -22 7 -9
7 -18 10 -21 7 -7 -7 -64 53 -64 67 0 7 4 6 8 -2 5 -8 16 -10 27 -6z m189 -56
c14 -5 26 -14 26 -20 0 -6 8 -28 18 -49 19 -38 19 -38 -2 -34 -16 4 -14 0 9
-16 19 -13 24 -21 14 -21 -9 0 -24 9 -34 20 -10 11 -24 20 -30 20 -7 0 -18 7
-25 15 -15 18 1 21 31 5 22 -12 23 -11 9 24 -5 14 -17 26 -26 26 -10 0 -14 3
-11 7 4 3 2 12 -4 20 -14 16 -9 16 25 3z m-108 -72 c7 -25 0 -33 -23 -23 -12
5 -14 9 -6 12 9 3 10 10 3 24 -8 15 -7 17 4 13 9 -3 18 -15 22 -26z m-111 -31
c63 -35 105 -84 126 -147 6 -19 19 -44 28 -55 21 -24 64 -128 86 -208 14 -50
20 -58 38 -55 20 3 22 8 19 51 -3 42 -1 49 17 54 12 3 21 13 21 24 0 10 4 20
9 23 5 3 11 -45 13 -107 5 -118 -4 -154 -42 -164 -13 -4 -19 -19 -24 -64 -3
-33 -12 -84 -20 -112 -8 -29 -17 -95 -20 -148 -7 -114 -24 -177 -78 -283 -46
-92 -57 -104 -100 -117 -135 -38 -281 41 -411 223 -25 34 -55 86 -67 113 -13
28 -38 81 -56 119 -19 37 -34 74 -34 81 0 6 -13 26 -30 43 -25 27 -29 36 -23
64 10 46 9 70 -11 181 -14 74 -17 135 -15 250 4 137 6 155 26 183 18 25 33 32
86 42 35 7 80 12 98 13 19 0 50 7 69 14 21 8 76 14 135 14 95 0 103 -1 160
-32z m345 -278 c0 -10 -59 -8 -66 2 -3 6 2 19 12 30 18 20 18 20 36 -3 10 -13
18 -26 18 -29z m10 -459 c0 -5 -2 -10 -4 -10 -3 0 -8 5 -11 10 -3 6 -1 10 4
10 6 0 11 -4 11 -10z"/>
<path d="M1003 1088 c-35 -5 -63 -14 -63 -19 0 -5 -10 -9 -22 -9 -26 -1 -58
-22 -58 -38 0 -23 35 -32 65 -16 52 27 140 47 198 46 53 -2 57 0 48 17 -9 16
-65 33 -96 30 -5 -1 -38 -6 -72 -11z"/>
<path d="M612 1011 c-74 -19 -112 -56 -95 -94 10 -21 10 -21 33 6 29 34 75 47
163 47 60 0 67 2 67 19 0 11 -6 23 -12 28 -22 13 -90 11 -156 -6z"/>
<path d="M1005 994 c-38 -11 -39 -12 -10 -13 23 -1 27 -3 15 -11 -12 -8 -9
-10 12 -10 15 0 31 8 37 18 9 14 12 14 20 3 5 -8 16 -11 30 -6 23 7 29 24 9
26 -59 5 -78 4 -113 -7z m45 -14 c0 -5 -4 -10 -10 -10 -5 0 -10 5 -10 10 0 6
5 10 10 10 6 0 10 -4 10 -10z"/>
<path d="M955 960 c-3 -5 -1 -10 4 -10 6 0 11 5 11 10 0 6 -2 10 -4 10 -3 0
-8 -4 -11 -10z"/>
<path d="M634 929 c-39 -11 -61 -36 -47 -50 7 -7 17 -4 31 12 18 18 24 20 37
9 15 -12 66 -6 64 8 -3 20 3 23 18 11 14 -12 16 -12 11 1 -6 18 -68 23 -114 9z"/>
<path d="M950 719 c0 -5 5 -7 10 -4 6 3 10 8 10 11 0 2 -4 4 -10 4 -5 0 -10
-5 -10 -11z"/>
<path d="M960 683 c0 -14 -59 -42 -65 -32 -4 5 -18 9 -33 9 -41 0 -163 -134
-147 -160 8 -12 32 -13 37 -1 2 4 32 17 68 29 36 11 58 21 48 21 -13 1 -10 9
15 36 36 41 49 43 76 14 14 -15 26 -19 41 -14 15 5 20 4 16 -4 -5 -7 13 -9 56
-6 54 3 63 7 66 24 4 22 -41 51 -80 51 -13 0 -34 9 -48 20 -25 20 -50 26 -50
13z m-135 -133 c-3 -5 -10 -10 -16 -10 -5 0 -9 5 -9 10 0 6 7 10 16 10 8 0 12
-4 9 -10z"/>
<path d="M922 468 c-6 -6 -12 -21 -11 -32 0 -12 3 -16 5 -9 3 7 11 10 19 7 19
-8 26 10 12 30 -10 13 -15 14 -25 4z"/>
<path d="M1147 429 c-9 -5 -22 -7 -27 -4 -6 3 -10 1 -10 -4 0 -6 -7 -11 -16
-11 -9 0 -14 -7 -13 -17 4 -25 -19 -63 -36 -63 -8 0 -15 -4 -15 -8 0 -5 -17
-10 -37 -11 -116 -9 -136 -4 -171 39 -19 24 -73 36 -98 22 -11 -6 -4 -18 29
-55 76 -84 211 -108 313 -57 20 11 41 17 45 14 5 -3 6 2 3 10 -4 11 0 16 10
16 9 0 16 5 16 11 0 6 15 29 33 52 39 49 58 80 36 60 -18 -17 -29 -16 -29 2 0
17 -8 18 -33 4z"/>
</g>
</svg>
