<?xml version="1.0" standalone="no"?>
<!DOCTYPE svg PUBLIC "-//W3C//DTD SVG 20010904//EN"
 "http://www.w3.org/TR/2001/REC-SVG-20010904/DTD/svg10.dtd">
<svg version="1.0" xmlns="http://www.w3.org/2000/svg"
 width="70.000000pt" height="70.000000pt" viewBox="0 0 70.000000 70.000000"
 preserveAspectRatio="xMidYMid meet">
<metadata>
Created by potrace 1.11, written by Peter Selinger 2001-2013
</metadata>
<g transform="translate(0.000000,70.000000) scale(0.100000,-0.100000)"
fill="#000000" stroke="none">
<path d="M270 672 c-46 -36 -52 -62 -55 -210 -1 -112 1 -140 17 -171 31 -63
102 -91 165 -65 76 32 86 58 88 226 1 156 -8 187 -65 226 -45 30 -107 28 -150
-6z m132 -49 c23 -21 23 -29 -2 -36 -23 -6 -28 -46 -5 -48 8 -1 20 -3 25 -4 6
-1 13 -3 18 -4 4 -1 -10 -9 -31 -19 -36 -16 -37 -18 -22 -39 9 -13 22 -20 30
-17 9 4 15 0 15 -9 0 -13 -15 -15 -80 -14 -59 0 -80 4 -80 14 0 7 11 13 25 13
18 0 25 5 25 20 0 13 -10 24 -25 30 -14 5 -25 15 -25 21 0 6 6 9 14 6 8 -3 22
0 32 7 17 13 16 15 -9 39 l-28 25 26 20 c29 23 69 21 97 -5z"/>
<path d="M120 395 c-8 -9 -13 -34 -11 -56 5 -87 72 -184 146 -210 19 -7 36
-17 36 -21 1 -4 2 -14 3 -20 4 -23 -13 -34 -49 -33 -26 2 -40 -3 -50 -18 -8
-11 -12 -24 -9 -29 7 -11 321 -11 328 1 13 21 -23 46 -66 46 -44 0 -44 -1 -39
49 0 8 17 20 37 26 40 14 96 65 120 111 23 45 33 123 19 148 -17 32 -46 6 -50
-45 -5 -57 -8 -66 -33 -101 -69 -98 -219 -104 -295 -11 -15 17 -27 38 -27 45
0 7 -4 13 -8 13 -4 0 -8 19 -7 41 1 25 -5 50 -15 61 -15 19 -17 19 -30 3z"/>
</g>
</svg>
